<svg xmlns="http://www.w3.org/2000/svg" xmlns:xlink="http://www.w3.org/1999/xlink" version="1.1" id="Layer_1" x="0px" y="0px" viewBox="0 0 128 128" style="enable-background:new 0 0 128 128;" xml:space="preserve" width="128"  height="128" >
<style type="text/css">
	.st0{fill:#FFFFFF;}
</style>
<path class="st0" d="M55.5,112h-3V16h3V112z M63.5,102.8h-3V25.2h3V102.8z M39.5,95.4h-3V32.6h3V95.4z M47.5,90.5h-3v-53h3V90.5z   M71.5,81.7h-3V46.3h3V81.7z M-8.5,78.3h-3V49.7h3V78.3z M79.5,78h-3V50h3V78z M31.5,77.3h-3V50.7h3V77.3z M151.5,73.8h-3V54.2h3  V73.8z M87.5,73.7h-3V54.3h3V73.7z M95.5,73.4h-3V54.6h3V73.4z M7.5,71.8h-3V56.2h3V71.8z M23.5,70.9h-3V57.1h3V70.9z M15.5,70.4h-3  V57.6h3V70.4z M103.5,70.4h-3V57.6h3V70.4z M-0.5,70.1h-3V57.9h3V70.1z M135.5,69.3h-3V58.7h3V69.3z M127.5,68.8h-3v-9.5h3V68.8z   M119.5,68.6h-3v-9.2h3V68.6z M111.5,67.9h-3v-7.8h3V67.9z M143.5,66.5h-3v-4.9h3V66.5z"/>
</svg>